<svg width="38" height="44" viewBox="0 0 38 44" fill="none" xmlns="http://www.w3.org/2000/svg">
<path d="M6.09308 35.1252H36.0645C36.1563 35.1252 36.2452 35.1121 36.3306 35.0917C36.3374 35.0917 36.3431 35.0929 36.3499 35.0929C36.9897 35.0929 37.5095 34.5737 37.5095 33.9334V1.15959C37.5096 0.519491 36.9897 0 36.3499 0H36.0668H7.94765H6.09471C3.00823 0 0.497657 2.51114 0.497657 5.59676C0.497657 5.63815 0.5058 5.67742 0.509823 5.71737C0.5058 8.56772 0.470452 34.7588 0.5058 38.202C0.503596 38.2693 0.495358 38.335 0.495358 38.403C0.495358 41.3701 2.81855 43.799 5.74075 43.9826C5.79938 43.9916 5.85685 44.0001 5.91768 44.0001H36.3498C36.9896 44.0001 37.5094 43.4809 37.5094 42.8405V38.4757C37.5094 37.8357 36.9895 37.3161 36.3498 37.3161C35.7101 37.3161 35.1902 37.8358 35.1902 38.4757V41.681H6.09308C4.33095 41.681 2.89251 40.2819 2.82181 38.5373C2.82354 38.5062 2.82919 38.4768 2.82861 38.4451C2.82746 38.3941 2.82574 38.3149 2.82459 38.2095C2.92594 36.4925 4.35107 35.1252 6.09308 35.1252ZM6.88376 5.59676C6.88376 4.95667 7.40325 4.43718 8.04335 4.43718C8.68344 4.43718 9.20294 4.95667 9.20294 5.59676V29.1511C9.20294 29.7909 8.68344 30.3107 8.04335 30.3107C7.40325 30.3107 6.88376 29.7908 6.88376 29.1511V5.59676Z" fill="#0CABA8"/>
</svg>
